<svg width="20" height="20" viewBox="0 0 20 20" fill="none" xmlns="http://www.w3.org/2000/svg">
<mask id="path-1-inside-1_202_133" fill="white">
<path fill-rule="evenodd" clip-rule="evenodd" d="M20 20.0003H0V5.42188H20V20.0003ZM1.25786 18.959H18.7421V6.46319H1.25786V18.959Z"/>
</mask>
<path fill-rule="evenodd" clip-rule="evenodd" d="M20 20.0003H0V5.42188H20V20.0003ZM1.25786 18.959H18.7421V6.46319H1.25786V18.959Z" fill="white"/>
<path d="M20 20.0003V21.4003H21.4V20.0003H20ZM0 20.0003H-1.4V21.4003H0V20.0003ZM0 5.42188V4.02188H-1.4V5.42188H0ZM20 5.42188H21.4V4.02188H20V5.42188ZM1.25786 18.959H-0.142138V20.359H1.25786V18.959ZM18.7421 18.959V20.359H20.1421V18.959H18.7421ZM18.7421 6.46319H20.1421V5.06319H18.7421V6.46319ZM1.25786 6.46319V5.06319H-0.142138V6.46319H1.25786ZM20 18.6003H0V21.4003H20V18.6003ZM1.4 20.0003V5.42188H-1.4V20.0003H1.4ZM0 6.82187H20V4.02188H0V6.82187ZM18.6 5.42188V20.0003H21.4V5.42188H18.6ZM1.25786 20.359H18.7421V17.559H1.25786V20.359ZM20.1421 18.959V6.46319H17.3421V18.959H20.1421ZM18.7421 5.06319H1.25786V7.86319H18.7421V5.06319ZM-0.142138 6.46319V18.959H2.65786V6.46319H-0.142138Z" fill="white" mask="url(#path-1-inside-1_202_133)"/>
<mask id="path-3-inside-2_202_133" fill="white">
<path fill-rule="evenodd" clip-rule="evenodd" d="M16.276 5.4545H14.9254V3.11686C14.9254 1.87589 13.3496 0.865794 11.4137 0.865794H8.89255C6.95664 0.865794 5.3809 1.87589 5.3809 3.11686L5.3809 5.4545H4.03027V3.11686C4.03027 1.38527 6.19128 0 8.89255 0H11.4137C14.115 0 16.276 1.38527 16.276 3.11686V5.4545Z"/>
</mask>
<path fill-rule="evenodd" clip-rule="evenodd" d="M16.276 5.4545H14.9254V3.11686C14.9254 1.87589 13.3496 0.865794 11.4137 0.865794H8.89255C6.95664 0.865794 5.3809 1.87589 5.3809 3.11686L5.3809 5.4545H4.03027V3.11686C4.03027 1.38527 6.19128 0 8.89255 0H11.4137C14.115 0 16.276 1.38527 16.276 3.11686V5.4545Z" fill="white"/>
<path d="M16.276 5.4545V6.8545H17.676V5.4545H16.276ZM14.9254 5.4545H13.5254V6.8545H14.9254V5.4545ZM5.3809 3.11686L3.9809 3.11686L3.9809 3.11686L5.3809 3.11686ZM5.3809 5.4545V6.8545H6.7809L6.7809 5.4545L5.3809 5.4545ZM4.03027 5.4545H2.63027V6.8545H4.03027V5.4545ZM16.276 4.0545H14.9254V6.8545H16.276V4.0545ZM16.3254 5.4545V3.11686H13.5254V5.4545H16.3254ZM16.3254 3.11686C16.3254 1.855 15.5272 0.908983 14.651 0.347332C13.7584 -0.224901 12.6098 -0.534206 11.4137 -0.534206V2.26579C12.1536 2.26579 12.7608 2.46153 13.14 2.70459C13.3267 2.82431 13.4304 2.93708 13.481 3.01367C13.5273 3.08362 13.5254 3.11481 13.5254 3.11686H16.3254ZM11.4137 -0.534206H8.89255V2.26579H11.4137V-0.534206ZM8.89255 -0.534206C7.6965 -0.534206 6.5479 -0.224901 5.65523 0.347332C4.77905 0.908983 3.9809 1.855 3.9809 3.11686H6.7809C6.7809 3.11481 6.77898 3.08362 6.82522 3.01367C6.87585 2.93708 6.97954 2.82431 7.1663 2.70459C7.54546 2.46153 8.15269 2.26579 8.89255 2.26579V-0.534206ZM3.9809 3.11686L3.9809 5.4545L6.7809 5.4545L6.7809 3.11686L3.9809 3.11686ZM5.3809 4.0545H4.03027V6.8545H5.3809V4.0545ZM5.43027 5.4545V3.11686H2.63027V5.4545H5.43027ZM5.43027 3.11686C5.43027 2.88558 5.57412 2.49146 6.20397 2.08771C6.82195 1.69157 7.76566 1.4 8.89255 1.4V-1.4C7.31817 -1.4 5.83074 -0.998936 4.6929 -0.269546C3.56693 0.452233 2.63027 1.61655 2.63027 3.11686H5.43027ZM8.89255 1.4H11.4137V-1.4H8.89255V1.4ZM11.4137 1.4C12.5406 1.4 13.4843 1.69157 14.1023 2.08771C14.7321 2.49146 14.876 2.88558 14.876 3.11686H17.676C17.676 1.61655 16.7393 0.452233 15.6134 -0.269546C14.4755 -0.998936 12.9881 -1.4 11.4137 -1.4V1.4ZM14.876 3.11686V5.4545H17.676V3.11686H14.876Z" fill="white" mask="url(#path-3-inside-2_202_133)"/>
</svg>
