<svg width="20" height="20" viewBox="0 0 20 20" fill="none" xmlns="http://www.w3.org/2000/svg">
<path id="Vector (Stroke)" fill-rule="evenodd" clip-rule="evenodd" d="M16.6727 2.62415C16.0063 1.99076 15.1469 1.64225 14.2523 1.64225C13.2146 1.64225 12.2143 2.11319 11.5072 2.93313C11.17 3.32551 10.8936 3.78633 10.6403 4.3802C10.5386 4.61884 10.3446 4.78253 10.1213 4.82675C10.0856 4.8338 10.0493 4.83782 10.0124 4.83861C9.96994 4.83741 9.92737 4.83216 9.88533 4.82299C9.67419 4.77693 9.47649 4.63207 9.37156 4.40574L9.24909 4.14014C8.52728 2.54992 7.24933 1.63405 5.80655 1.63405C5.57378 1.63405 5.33765 1.65816 5.10446 1.70732C3.88732 1.96135 2.92771 2.73743 2.25161 4.01385C1.2467 5.90921 1.15653 7.55872 1.96725 9.20246C2.47935 10.2412 3.15083 11.2617 4.02028 12.3236C5.63082 14.2922 7.53621 16.1717 9.99774 18.2184C12.2596 16.3414 14.0149 14.6388 15.5499 12.8399C16.4055 11.8382 17.3719 10.6153 18.0568 9.13353C18.3206 8.5628 18.5877 7.88506 18.5739 7.17406C18.534 5.29028 17.9125 3.80079 16.6727 2.62415ZM10.9323 1.32927C11.8576 0.481058 13.0383 0.0052637 14.2523 0.0052637C15.4778 0.0052637 16.6601 0.486333 17.5807 1.36171C19.1363 2.83817 19.9496 4.78125 19.9991 7.13694C20.0213 8.23164 19.6455 9.18993 19.3158 9.90189C18.5466 11.5683 17.4947 12.9025 16.5678 13.9881C14.9078 15.9331 13.0091 17.7614 10.5921 19.745L10.5898 19.7469C10.4956 19.8271 10.3126 19.9828 10.0447 19.9987C10.0302 19.9996 10.0153 20 10.0003 20C9.98297 20 9.96573 19.9994 9.94857 19.9983C9.77596 19.9865 9.61025 19.9159 9.45461 19.7874C6.77582 17.5865 4.71902 15.5716 2.98139 13.4487C2.03268 12.2899 1.29535 11.1658 0.727047 10.0123C-0.336164 7.85614 -0.232569 5.55154 1.03322 3.1621C1.93034 1.46968 3.215 0.437648 4.84904 0.0968503C6.36659 -0.221886 7.89709 0.260426 9.06467 1.33264C9.41211 1.6517 9.72742 2.023 10.0007 2.44098C10.1546 2.20382 10.3186 1.98546 10.4935 1.78204C10.632 1.62117 10.7786 1.47008 10.9323 1.32927Z" fill="white"/>
</svg>
