<svg width="20" height="20" viewBox="0 0 20 20" fill="none" xmlns="http://www.w3.org/2000/svg">
<path d="M14.8554 3.91303C14.8554 4.70444 14.401 5.49077 13.5252 6.10767C12.6513 6.72322 11.4071 7.12607 9.99989 7.12607C8.59271 7.12607 7.34853 6.72322 6.47461 6.10767C5.59876 5.49077 5.14434 4.70444 5.14434 3.91303C5.14434 3.12163 5.59876 2.33529 6.47461 1.71839C7.34853 1.10285 8.59271 0.7 9.99989 0.7C11.4071 0.7 12.6513 1.10285 13.5252 1.71839C14.401 2.33529 14.8554 3.12163 14.8554 3.91303Z" stroke="white" stroke-width="1.4"/>
<mask id="path-2-inside-1_202_124" fill="white">
<path fill-rule="evenodd" clip-rule="evenodd" d="M0 19.999H20C19.9999 13.7561 18.125 8.69531 10 8.69531C1.87502 8.69531 0.000121616 13.7561 0 19.999Z"/>
</mask>
<path d="M0 19.999L-1.4 19.999L-1.40003 21.399H0V19.999ZM20 19.999V21.399H21.4L21.4 19.999L20 19.999ZM0 21.399H20V18.599H0V21.399ZM10 10.0953C13.7522 10.0953 15.7645 11.2446 16.9137 12.8283C18.1324 14.5077 18.5999 16.9629 18.6 19.9991L21.4 19.999C21.3999 16.7922 20.93 13.5955 19.1799 11.1838C17.3604 8.67639 14.3728 7.29531 10 7.29531V10.0953ZM1.4 19.9991C1.40006 16.9629 1.86761 14.5077 3.08628 12.8283C4.23548 11.2446 6.24782 10.0953 10 10.0953V7.29531C5.6272 7.29531 2.6396 8.67639 0.820073 11.1838C-0.92998 13.5955 -1.39994 16.7922 -1.4 19.999L1.4 19.9991Z" fill="white" mask="url(#path-2-inside-1_202_124)"/>
</svg>
