<svg width="192" height="28" viewBox="0 0 192 28" fill="none" xmlns="http://www.w3.org/2000/svg">
<path d="M16.28 7.416C12.572 7.416 10.16 10.008 10.16 14.256C10.16 18.504 12.572 21.132 16.28 21.132C19.988 21.132 22.4 18.54 22.4 14.256C22.4 9.972 19.988 7.416 16.28 7.416ZM0.26 14.256C0.26 5.796 5.984 0.864 16.28 0.864C26.576 0.864 32.3 5.796 32.3 14.256C32.3 22.716 26.576 27.684 16.28 27.684C5.984 27.684 0.26 22.716 0.26 14.256ZM53.7346 27V0.864H65.6866L75.8026 15.912V0.864H85.5946V27H74.2546L63.2746 11.7V27H53.7346ZM89.8407 13.932C89.8407 4.896 95.7447 0.179998 107.409 0.179998C119.073 0.179998 124.977 4.896 124.977 13.932C124.977 22.968 119.073 27.684 107.409 27.684C95.7447 27.684 89.8407 22.968 89.8407 13.932ZM100.713 13.932C100.713 18.504 103.053 20.952 107.409 20.952C111.765 20.952 114.105 18.504 114.105 13.932C114.105 9.36 111.765 6.876 107.409 6.876C103.053 6.876 100.713 9.36 100.713 13.932ZM135.84 27V7.488H126.408V0.864H155.46V7.488H145.992V27H135.84ZM182.892 27V10.512C181.164 11.088 179.544 11.412 177.924 11.484V5.076C181.092 4.536 183.324 3.348 184.656 1.512H191.928V27H182.892Z" fill="#010101"/>
</svg>
